<?xml version="1.0" encoding="UTF-8"?>
<svg version="1.1" xmlns="http://www.w3.org/2000/svg" width="47" height="28">
<path d="M0 0 C0 9.24 0 18.48 0 28 C-1.98 28 -3.96 28 -6 28 C-6 22.72 -6 17.44 -6 12 C-7.11375 13.32 -8.2275 14.64 -9.375 16 C-11.2734375 18.25 -11.2734375 18.25 -13 20 C-13.66 20 -14.32 20 -15 20 C-15.226875 20.5775 -15.45375 21.155 -15.6875 21.75 C-17.42027339 24.72046866 -19.07533544 26.18020872 -22 28 C-25.8125 28.25 -25.8125 28.25 -29 28 C-24.19715445 22.18984624 -19.01460623 16.82838745 -13.68505859 11.49975586 C-12.23374698 10.0462221 -10.79066512 8.58481827 -9.34765625 7.12304688 C-8.43371094 6.20716797 -7.51976563 5.29128906 -6.578125 4.34765625 C-5.74700195 3.51242432 -4.91587891 2.67719238 -4.05957031 1.81665039 C-2 0 -2 0 0 0 Z " fill="#FF8300" transform="translate(45,0)"/>
<path d="M0 0 C1.65 0 3.3 0 5 0 C5.33 5.28 5.66 10.56 6 16 C7.216875 14.783125 8.43375 13.56625 9.6875 12.3125 C12.79166667 9.20833333 15.89583333 6.10416667 19 3 C19.45375 2.401875 19.9075 1.80375 20.375 1.1875 C23.05185981 -0.76866678 25.80829261 -0.18066268 29 0 C24.19715445 5.81015376 19.01460623 11.17161255 13.68505859 16.50024414 C12.23374698 17.9537779 10.79066512 19.41518173 9.34765625 20.87695312 C8.43371094 21.79283203 7.51976562 22.70871094 6.578125 23.65234375 C5.74700195 24.48757568 4.91587891 25.32280762 4.05957031 26.18334961 C2 28 2 28 0 28 C0 18.76 0 9.52 0 0 Z " fill="#FF8400" transform="translate(3,0)"/>
<path d="M0 0 C0.33 0 0.66 0 1 0 C1 1.65 1 3.3 1 5 C0.67 5 0.34 5 0 5 C0 3.35 0 1.7 0 0 Z " fill="#FFFFFF" transform="translate(0,12)"/>
<path d="M0 0 C0.33 0 0.66 0 1 0 C1 1.65 1 3.3 1 5 C0.67 5 0.34 5 0 5 C0 3.35 0 1.7 0 0 Z " fill="#FFFFFF" transform="translate(0,0)"/>
<path d="M0 0 C1 4 1 4 1 4 Z " fill="#FFFFFF" transform="translate(0,24)"/>
</svg>
